<?xml version="1.0" encoding="utf-8"?>
<!-- Generator: Adobe Illustrator 25.4.1, SVG Export Plug-In . SVG Version: 6.00 Build 0)  -->
<svg version="1.1" id="Layer" xmlns="http://www.w3.org/2000/svg" xmlns:xlink="http://www.w3.org/1999/xlink" x="0px" y="0px"
	 viewBox="0 0 363.47 266.15" style="enable-background:new 0 0 363.47 266.15;" xml:space="preserve">
<style type="text/css">
	.st0{fill:#1565BE;}
	.st1{fill:#C7784C;}
	.st2{fill:#F2EADC;}
	.st3{fill:#DFCFB5;}
	.st4{fill:#FFFCF7;}
	.st5{fill:#858A4C;}
	.st6{fill:#DDB79B;}
	.st7{fill:#FFFFFF;}
	.st8{fill:#BA5720;}
	.st9{fill:#FADAC3;}
	.st10{fill:#8AC2DD;}
	.st11{fill:#2F586E;}
	.st12{fill:#0A3045;}
	.st13{fill:#BFBFBF;}
	.st14{fill:#D9EAF1;}
	.st15{fill:#F2F2F2;}
	.st16{fill:#6A95A8;}
	.st17{fill:#5598E9;}
	.st18{fill:#3F461D;}
	.st19{fill:#AF250B;}
	.st20{fill:#91ADBA;}
	.st21{fill:#FFEBBF;}
	.st22{fill:#EF951F;}
	.st23{fill:#EFC058;}
	.st24{fill:#C4C4C4;}
	.st25{fill:#FFD373;}
	.st26{fill:#E06A00;}
	.st27{fill:#433E44;}
	.st28{fill:#CFCFCF;}
	.st29{fill:#E6E6E6;}
	.st30{fill:#DBC79A;}
	.st31{fill:#BFF8FF;}
	.st32{fill:#962009;}
	.st33{fill:#75BBE0;}
	.st34{fill:#D9D9D9;}
	.st35{fill:#F0EFDE;}
	.st36{fill:#FFFEF2;}
	.st37{fill:#DE2F0E;}
</style>
<g>
	<g>
		<g>
			<path class="st0" d="M351.69,199.71l-92.48,53.39h-38.34L36.92,146.89c-8.32-4.81-9.23-12.09-2.02-16.25l98.6-56.92
				c7.21-4.16,19.8-3.64,28.14,1.17l188.04,108.57C358,188.27,358.9,195.53,351.69,199.71z"/>
			<g>
				<path class="st1" d="M7.94,115.21v16.26h0.01c0.05,3.16,2.36,6.49,6.87,9.08l186.53,107.69l1.51,0.87
					c8.33,4.81,20.92,5.33,28.14,1.17l0.36-0.21l98.24-56.71c3.1-1.8,4.7-4.16,4.85-6.67h0.01v-16.1h-18.19l-114.92-66.35
					l-15.03-8.68l-46.79-27.02c-8.33-4.8-20.92-5.33-28.14-1.17L62.59,95.57l-41.02,23.69v-4.05H7.94z"/>
				<path class="st2" d="M7.94,115.21v16.26h0.01c0.05,3.16,2.36,6.49,6.87,9.08l186.53,107.69V95.57H62.59l-41.02,23.69v-4.05H7.94
					z"/>
				<path class="st3" d="M201.36,221.2v27.04l1.51,0.87c8.33,4.81,20.92,5.33,28.14,1.17l0.36-0.21V221.2H201.36z"/>
				<path class="st4" d="M231.01,234.35l98.59-56.92c7.21-4.16,6.31-11.44-2.02-16.24L139.54,52.62
					c-8.33-4.81-20.92-5.33-28.13-1.17l-98.59,56.92c-7.21,4.16-6.31,11.44,2.02,16.24l188.05,108.57
					C211.2,237.99,223.8,238.52,231.01,234.35z"/>
				<polygon class="st1" points="199.19,216.03 297.87,159.06 134.22,64.58 35.54,121.55 				"/>
				<polygon class="st5" points="294.17,159.06 134.22,66.71 39.23,121.55 199.19,213.9 				"/>
				<polygon class="st4" points="138.94,131.55 135.09,133.77 126.69,128.93 114.35,136.05 122.74,140.9 99.15,154.52 
					150.78,184.42 190.57,161.45 				"/>
				<g>
					<path class="st6" d="M69.04,96.55L91.12,83.8c1.31-0.76,1.14-2.08-0.37-2.95l0,0c-1.51-0.87-3.8-0.97-5.11-0.21L63.57,93.39
						c-1.31,0.76-1.14,2.08,0.37,2.95l0,0C65.45,97.22,67.73,97.31,69.04,96.55z"/>
					<g>
						<path class="st1" d="M59.89,93.18v1.96c0.06,0.54,0.47,1.11,1.24,1.55c1.06,0.62,2.5,0.85,3.72,0.66
							c0.52-0.07,1-0.22,1.39-0.46l22.08-12.75c0.58-0.32,0.85-0.76,0.87-1.22l0.01-1.91l-1.4,0.11c-1.5-0.8-3.68-0.87-4.95-0.14
							L64.15,91.79l-3.09,1.78L61,93.18H59.89z"/>
						<path class="st3" d="M59.89,93.18v1.96c0.06,0.54,0.47,1.11,1.24,1.55c1.06,0.62,2.5,0.85,3.72,0.66v-5.56h-0.7l-3.09,1.78
							L61,93.18H59.89z"/>
						<path class="st7" d="M66.25,95.05L88.33,82.3c1.31-0.76,1.14-2.08-0.37-2.95v0c-1.51-0.87-3.8-0.97-5.11-0.21L60.77,91.89
							c-1.31,0.76-1.14,2.08,0.37,2.95l0,0C62.65,95.72,64.94,95.81,66.25,95.05z"/>
					</g>
				</g>
				<g>
					<path class="st8" d="M273.52,222.95l12.92-7.46c1.48-0.86,2.69-3.16,2.69-5.13v-0.17c0-1.98-1.2-2.89-2.69-2.03l-12.92,7.46
						c-1.48,0.86-2.69,3.16-2.69,5.13v0.17C270.83,222.89,272.03,223.8,273.52,222.95z"/>
					<path class="st4" d="M271.78,222.21l12.92-7.46c1.48-0.86,2.69-3.16,2.69-5.13v-0.17c0-0.64-0.14-1.16-0.36-1.55
						c1.2-0.33,2.09,0.58,2.09,2.28v0.17c0,1.98-1.2,4.28-2.69,5.13l-12.92,7.46c-1,0.58-1.87,0.34-2.33-0.48
						C271.38,222.41,271.58,222.33,271.78,222.21z"/>
				</g>
				<g>
					<path class="st6" d="M261.48,211.37l24.99-14.43c2.23-1.29,1.95-3.54-0.62-5.02l-4.05-2.34c-2.57-1.49-6.47-1.65-8.7-0.36
						l-24.99,14.43c-2.23,1.29-1.95,3.54,0.62,5.02l4.05,2.34C255.36,212.49,259.25,212.65,261.48,211.37z"/>
					<path class="st1" d="M245.51,202.19v2.18l0.02,0.01c-0.04,1,0.66,2.07,2.1,2.9l4.05,2.34c1.35,0.79,3.08,1.21,4.73,1.22
						c1.48,0.04,2.9-0.25,3.96-0.86l25-14.42c1-0.58,1.46-1.34,1.48-2.15h0.02v-2.22l-0.92,0.28c-0.33-0.33-0.71-0.65-1.21-0.94
						l-4.05-2.34c-2.57-1.49-6.47-1.65-8.7-0.36l-18.42,10.63l-6.56,3.79c-0.3,0.17-0.54,0.36-0.75,0.55L245.51,202.19z"/>
					<path class="st3" d="M245.51,202.19v2.18l0.02,0.01c-0.04,1,0.66,2.07,2.1,2.9l4.05,2.34c1.35,0.79,3.08,1.21,4.73,1.22v-12.37
						h-2.84l-6.56,3.79c-0.3,0.17-0.54,0.36-0.75,0.55L245.51,202.19z"/>
					<path class="st2" d="M260.38,207.79l24.99-14.43c2.23-1.29,1.95-3.54-0.62-5.02l-4.05-2.34c-2.57-1.49-6.47-1.65-8.7-0.36
						l-24.99,14.43c-2.23,1.29-1.95,3.54,0.62,5.02l4.05,2.34C254.25,208.91,258.15,209.08,260.38,207.79z"/>
					<path class="st7" d="M260.82,206.95l23.09-13.33c2.06-1.19,1.8-3.27-0.58-4.64l-3.74-2.16c-2.38-1.37-5.98-1.52-8.04-0.33
						l-23.09,13.33c-2.06,1.19-1.8,3.27,0.58,4.64l3.74,2.16C255.16,207.99,258.76,208.14,260.82,206.95z"/>
				</g>
			</g>
		</g>
		<g>
			<polygon class="st5" points="109.13,139.66 156.68,139.66 195.49,161.92 287.6,162.85 294.17,159.06 234.68,124.69 
				131.71,113.61 111.38,126.69 			"/>
			<polygon class="st4" points="138.94,131.55 135.09,133.77 126.69,128.93 114.35,136.05 122.74,140.9 99.15,154.52 150.78,184.42 
				190.57,161.45 			"/>
			<polygon class="st9" points="152.95,139.66 120.57,139.66 114.86,136.33 127.19,129.2 135.08,133.78 138.94,131.55 			"/>
			<g>
				<g>
					<polygon class="st10" points="109.13,85.67 64.03,59.63 136.43,17.8 181.53,43.84 					"/>
					<polygon class="st11" points="109.13,139.66 109.13,85.67 181.53,43.84 181.53,97.83 					"/>
					<g>
						<g>
							<g>
								<polygon class="st10" points="148.71,110.96 148.71,111.49 109.13,134.34 109.13,133.81 								"/>
							</g>
							<g>
								<polygon class="st10" points="148.71,104.31 148.71,104.84 109.13,127.69 109.13,127.16 								"/>
							</g>
							<g>
								<polygon class="st10" points="148.71,97.65 148.71,98.19 109.13,121.04 109.13,120.5 								"/>
							</g>
							<g>
								<polygon class="st10" points="148.71,91.01 148.71,91.54 109.13,114.38 109.13,113.86 								"/>
							</g>
							<g>
								<polygon class="st10" points="148.71,84.36 148.71,84.89 109.13,107.74 109.13,107.21 								"/>
							</g>
							<g>
								<polygon class="st10" points="148.71,77.7 148.71,78.24 109.13,101.09 109.13,100.55 								"/>
							</g>
							<g>
								<polygon class="st10" points="148.71,71.05 148.71,71.59 109.13,94.43 109.13,93.9 								"/>
							</g>
							<g>
								<polygon class="st10" points="148.71,64.4 148.71,64.93 109.13,87.78 109.13,87.25 								"/>
							</g>
						</g>
						<g>
							<polygon class="st12" points="148.71,111.27 148.71,111.79 109.13,134.64 109.13,134.12 							"/>
							<polygon class="st12" points="148.71,104.62 148.71,105.14 109.13,127.99 109.13,127.46 							"/>
							<polygon class="st12" points="148.71,97.96 148.71,98.5 109.13,121.35 109.13,120.81 							"/>
							<polygon class="st12" points="148.71,91.31 148.71,91.84 109.13,114.69 109.13,114.16 							"/>
							<polygon class="st12" points="148.71,84.66 148.71,85.19 109.13,108.04 109.13,107.51 							"/>
							<polygon class="st12" points="148.71,78.01 148.71,78.54 109.13,101.39 109.13,100.85 							"/>
							<polygon class="st12" points="148.71,71.35 148.71,71.89 109.13,94.74 109.13,94.2 							"/>
							<polygon class="st12" points="148.71,64.71 148.71,65.23 109.13,88.08 109.13,87.56 							"/>
						</g>
					</g>
					<polygon class="st13" points="111.38,138.36 109.13,139.66 109.13,79.46 111.38,78.16 					"/>
					<polygon class="st13" points="132.83,125.97 130.58,127.27 130.58,67.07 132.83,65.77 					"/>
					<polygon class="st10" points="64.03,113.62 64.03,59.63 109.13,85.67 109.13,139.66 					"/>
					<g>
						<g>
							<polygon class="st11" points="109.13,133.94 109.13,134.47 64.03,108.44 64.03,107.91 							"/>
							<polygon class="st11" points="109.13,127.28 109.13,127.82 64.03,101.79 64.03,101.25 							"/>
							<polygon class="st11" points="109.13,120.64 109.13,121.17 64.03,95.13 64.03,94.6 							"/>
							<polygon class="st11" points="109.13,113.99 109.13,114.52 64.03,88.48 64.03,87.95 							"/>
							<polygon class="st11" points="109.13,107.33 109.13,107.87 64.03,81.83 64.03,81.3 							"/>
							<polygon class="st11" points="109.13,100.68 109.13,101.22 64.03,75.18 64.03,74.65 							"/>
							<polygon class="st11" points="109.13,94.03 109.13,94.56 64.03,68.53 64.03,68 							"/>
							<polygon class="st11" points="109.13,87.38 109.13,87.91 64.03,61.88 64.03,61.35 							"/>
							<polygon class="st11" points="113.4,83.2 113.14,83.35 112.94,83.46 67.84,57.43 68.04,57.32 68.3,57.16 							"/>
							<polygon class="st11" points="119.16,79.87 118.9,80.02 118.7,80.14 73.6,54.1 73.8,53.99 74.07,53.83 							"/>
						</g>
						<g>
							<polygon class="st14" points="109.13,134.24 109.13,134.77 64.03,108.74 64.03,108.21 							"/>
							<polygon class="st14" points="109.13,127.59 109.13,128.13 64.03,102.09 64.03,101.56 							"/>
							<polygon class="st14" points="109.13,120.94 109.13,121.47 64.03,95.44 64.03,94.91 							"/>
							<polygon class="st14" points="109.13,114.29 109.13,114.82 64.03,88.79 64.03,88.26 							"/>
							<polygon class="st14" points="109.13,107.64 109.13,108.17 64.03,82.14 64.03,81.61 							"/>
							<polygon class="st14" points="109.13,100.98 109.13,101.52 64.03,75.49 64.03,74.95 							"/>
							<polygon class="st14" points="109.13,94.34 109.13,94.86 64.03,68.83 64.03,68.3 							"/>
							<polygon class="st14" points="109.13,87.69 109.13,88.22 64.03,62.18 64.03,61.65 							"/>
							<polygon class="st14" points="113.14,83.35 112.94,83.46 112.68,83.62 67.58,57.58 67.84,57.43 68.04,57.32 							"/>
							<polygon class="st14" points="118.9,80.02 118.7,80.14 118.43,80.29 73.34,54.26 73.6,54.1 73.8,53.99 							"/>
						</g>
					</g>
					<polygon class="st15" points="106.88,138.36 109.13,139.66 109.13,79.46 106.88,78.16 					"/>
					<polygon class="st15" points="109.48,85.46 109.13,85.67 109.13,87.43 88.32,54.9 64.03,61.38 64.03,59.63 66.55,58.17 
						88.32,52.37 					"/>
					<polygon class="st15" points="64.03,113.62 66.28,114.92 66.28,58.24 64.03,56.94 					"/>
				</g>
				<g>
					<polygon class="st11" points="195.49,107.89 132.83,71.94 181.52,43.84 244.19,79.78 					"/>
					<polygon class="st11" points="195.49,161.92 195.49,107.89 244.19,79.78 244.19,133.82 					"/>
					<g>
						<g>
							<g>
								<polygon class="st10" points="244.19,128.07 244.19,128.6 195.5,156.71 195.5,156.18 								"/>
							</g>
							<g>
								<polygon class="st10" points="244.19,121.42 244.19,121.95 195.5,150.06 195.5,149.53 								"/>
							</g>
							<g>
								<polygon class="st10" points="244.19,114.76 244.19,115.3 195.5,143.41 195.5,142.88 								"/>
							</g>
							<g>
								<polygon class="st10" points="244.19,108.12 244.19,108.65 195.5,136.76 195.5,136.23 								"/>
							</g>
							<g>
								<polygon class="st10" points="244.19,101.47 244.19,102 195.5,130.11 195.5,129.58 								"/>
							</g>
							<g>
								<polygon class="st10" points="244.19,94.81 244.19,95.35 195.5,123.46 195.5,122.93 								"/>
							</g>
							<g>
								<polygon class="st10" points="244.19,88.16 244.19,88.69 195.5,116.81 195.5,116.27 								"/>
							</g>
							<g>
								<polygon class="st10" points="244.19,81.51 244.19,82.04 195.5,110.16 195.5,109.62 								"/>
							</g>
							<g>
								<polygon class="st10" points="240.37,77.59 191.69,105.7 191.49,105.59 191.22,105.44 239.91,77.33 240.17,77.48 								
									"/>
							</g>
							<g>
								<polygon class="st10" points="234.59,74.28 191.01,99.44 191.01,98.91 234.13,74.01 234.39,74.17 								"/>
							</g>
						</g>
						<g>
							<polygon class="st12" points="244.19,128.38 244.19,128.9 195.5,157.02 195.5,156.49 							"/>
							<polygon class="st12" points="244.19,121.72 244.19,122.25 195.5,150.36 195.5,149.84 							"/>
							<polygon class="st12" points="244.19,115.07 244.19,115.61 195.5,143.72 195.5,143.19 							"/>
							<polygon class="st12" points="244.19,108.42 244.19,108.95 195.5,137.07 195.5,136.53 							"/>
							<polygon class="st12" points="244.19,101.77 244.19,102.3 195.5,130.41 195.5,129.88 							"/>
							<polygon class="st12" points="244.19,95.12 244.19,95.65 195.5,123.76 195.5,123.23 							"/>
							<polygon class="st12" points="244.19,88.46 244.19,89 195.5,117.11 195.5,116.58 							"/>
							<polygon class="st12" points="244.19,81.82 244.19,82.34 195.5,110.46 195.5,109.93 							"/>
							<polygon class="st12" points="240.64,77.75 191.96,105.86 191.69,105.7 191.49,105.59 240.17,77.48 240.37,77.59 							"/>
							<polygon class="st12" points="234.86,74.43 191.01,99.75 191.01,99.22 234.39,74.17 234.59,74.28 							"/>
						</g>
					</g>
					<polygon class="st13" points="197.74,160.62 195.49,161.92 195.49,101.72 197.74,100.42 					"/>
					<polygon class="st13" points="244.19,133.82 241.94,135.12 241.94,78.3 244.19,77 					"/>
					<polygon class="st10" points="132.83,125.97 132.83,71.94 195.49,107.89 195.49,161.92 					"/>
					<g>
						<g>
							<polygon class="st11" points="195.5,156.44 195.5,156.97 132.83,120.79 132.83,120.26 							"/>
							<polygon class="st11" points="195.5,149.79 195.5,150.32 132.83,114.14 132.83,113.61 							"/>
							<polygon class="st11" points="195.5,143.13 195.5,143.67 132.83,107.49 132.83,106.96 							"/>
							<polygon class="st11" points="195.5,136.49 195.5,137.01 132.83,100.84 132.83,100.31 							"/>
							<polygon class="st11" points="195.5,129.84 195.5,130.37 132.83,94.19 132.83,93.66 							"/>
							<polygon class="st11" points="195.5,123.18 195.5,123.72 132.83,87.54 132.83,87 							"/>
							<polygon class="st11" points="195.5,116.53 195.5,117.06 132.83,80.89 132.83,80.35 							"/>
							<polygon class="st11" points="195.5,109.88 195.5,110.41 132.83,74.23 132.83,73.71 							"/>
						</g>
						<g>
							<polygon class="st14" points="195.5,156.74 195.5,157.27 132.83,121.1 132.83,120.57 							"/>
							<polygon class="st14" points="195.5,150.09 195.5,150.62 132.83,114.45 132.83,113.92 							"/>
							<polygon class="st14" points="195.5,143.44 195.5,143.98 132.83,107.8 132.83,107.26 							"/>
							<polygon class="st14" points="195.5,136.79 195.5,137.32 132.83,101.14 132.83,100.61 							"/>
							<polygon class="st14" points="195.5,130.14 195.5,130.67 132.83,94.49 132.83,93.96 							"/>
							<polygon class="st14" points="195.5,123.49 195.5,124.02 132.83,87.84 132.83,87.31 							"/>
							<polygon class="st14" points="195.5,116.83 195.5,117.37 132.83,81.19 132.83,80.66 							"/>
							<polygon class="st14" points="195.5,110.19 195.5,110.71 132.83,74.54 132.83,74.01 							"/>
						</g>
					</g>
					<polygon class="st15" points="132.83,125.97 135.08,127.27 135.08,67.07 132.83,65.77 					"/>
					<polygon class="st15" points="193.24,160.62 195.49,161.92 195.49,101.72 193.24,100.42 					"/>
				</g>
				<polygon class="st16" points="109.13,92.13 132.83,79 132.83,73.71 109.13,85.19 				"/>
				<g>
					<polygon class="st17" points="62.13,60.12 88.32,53.13 160.72,11.3 134.53,18.29 					"/>
					<polygon class="st18" points="110.31,87.52 88.32,53.13 160.72,11.3 182.71,45.69 					"/>
					<polygon class="st19" points="182.71,43.16 182.71,45.69 110.31,87.52 110.31,84.98 					"/>
				</g>
				<polygon class="st20" points="64.03,65.14 86.56,60.13 109.13,92.13 109.13,85.67 88.22,52.83 64.03,59.63 				"/>
				<g>
					<polygon class="st21" points="62.13,57.59 88.32,50.6 160.72,8.77 134.53,15.76 					"/>
					<polygon class="st22" points="110.31,84.98 88.32,50.6 160.72,8.77 182.71,43.16 					"/>
					<g>
						<polygon class="st23" points="112.63,61.76 125.04,66.2 127.63,62.71 122.95,57.43 112.63,53.62 						"/>
						<g>
							<g>
								<polygon class="st15" points="112.63,52.98 108.15,50.39 112.61,47.82 117.09,50.41 								"/>
								<g>
									<polygon class="st7" points="112.63,52.96 107.82,50.18 112.6,47.41 117.42,50.2 									"/>
									<polygon class="st13" points="112.63,53.8 117.42,51.03 117.42,50.2 112.63,52.96 									"/>
									<polygon class="st15" points="107.82,51.02 112.63,53.8 112.63,52.96 107.82,50.18 									"/>
								</g>
								<polygon class="st13" points="115.78,50.41 112.63,52.23 112.62,52.22 109.46,50.4 112.61,48.58 112.62,48.59 								"/>
								<polygon class="st15" points="115.78,50.41 112.63,52.23 112.62,52.22 112.62,48.59 								"/>
								<polygon class="st13" points="112.63,61.76 117.09,59.19 117.09,50.41 112.63,52.98 								"/>
								<polygon class="st15" points="108.15,54.79 112.63,61.76 112.63,52.98 108.15,50.39 								"/>
							</g>
							<g>
								<polygon class="st15" points="112.64,48.35 112,47.99 112.63,47.63 113.27,47.99 								"/>
								<polygon class="st13" points="112.64,52.75 113.27,52.38 113.27,47.99 112.64,48.35 								"/>
								<polygon class="st15" points="112,52.38 112.64,52.75 112.64,48.35 112,47.99 								"/>
							</g>
							<polygon class="st24" points="112.63,47.87 113.26,48.22 113.26,49.34 112.64,49.7 112.01,49.33 112.01,48.22 							"/>
							<g>
								<polygon class="st15" points="116.46,46.14 115.83,45.78 116.46,45.41 117.09,45.78 								"/>
								<polygon class="st13" points="116.46,50.53 117.09,50.17 117.09,45.78 116.46,46.14 								"/>
								<polygon class="st15" points="115.83,50.17 116.46,50.53 116.46,46.14 115.83,45.78 								"/>
							</g>
							<polygon class="st24" points="117.09,46.19 117.09,47.13 116.46,47.49 115.84,47.2 115.84,46.01 116.31,45.73 							"/>
							<g>
								<polygon class="st15" points="108.78,46.13 108.15,45.76 108.78,45.4 109.41,45.77 								"/>
								<polygon class="st13" points="108.78,50.52 109.41,50.16 109.41,45.77 108.78,46.13 								"/>
								<polygon class="st15" points="108.15,50.16 108.78,50.52 108.78,46.13 108.15,45.76 								"/>
							</g>
							<polygon class="st24" points="109.41,46.01 109.41,47.13 108.78,47.48 108.15,47.12 108.15,46.17 108.92,45.72 							"/>
							<g>
								<polygon class="st25" points="112.64,48.35 107.34,45.29 112.6,42.25 117.9,45.31 								"/>
								<polygon class="st19" points="112.64,49.27 117.9,46.23 117.9,45.31 112.64,48.35 								"/>
								<polygon class="st26" points="107.34,46.21 112.64,49.27 112.64,48.35 107.34,45.29 								"/>
							</g>
						</g>
					</g>
				</g>
				<g>
					<polygon class="st17" points="192.6,112.08 129.94,76.13 149.54,57.89 212.21,93.84 					"/>
					<polygon class="st6" points="184.52,45.11 161.51,36.79 224.18,72.73 247.18,81.06 					"/>
					<polygon class="st27" points="224.18,72.73 212.21,93.84 149.54,57.89 161.51,36.79 					"/>
				</g>
				<polygon class="st20" points="195.5,114.94 195.5,107.79 132.83,71.85 132.83,79 				"/>
				<polygon class="st16" points="244.19,85.51 244.19,77.48 224.18,67.68 212.21,88.78 195.49,104.29 195.49,114.88 212.21,99.37 
					224.18,78.27 				"/>
				<g>
					<polygon class="st23" points="192.6,109.59 129.94,73.64 149.54,55.4 212.21,91.34 					"/>
					<polygon class="st23" points="184.52,42.62 161.51,34.29 224.18,70.24 247.18,78.57 					"/>
					<polygon class="st21" points="224.18,70.24 212.21,91.34 149.54,55.4 161.51,34.29 					"/>
				</g>
				<polygon class="st26" points="88.32,50.6 88.32,53.13 62.13,60.12 62.13,57.59 				"/>
				<polygon class="st26" points="88.32,50.6 88.32,53.13 110.31,87.52 110.31,84.98 				"/>
				<polygon class="st19" points="247.18,81.06 247.18,78.57 224.18,70.24 212.21,91.34 192.6,109.59 192.6,112.08 212.21,93.84 
					224.18,72.73 				"/>
				<polygon class="st26" points="192.6,112.08 192.6,109.59 129.94,73.64 129.94,76.13 				"/>
				<g>
					<polygon class="st7" points="102.75,88.37 69.96,69.53 70.36,69.29 103.15,88.13 					"/>
					<polygon class="st13" points="102.75,136.45 103.15,136.22 103.15,88.13 102.75,88.37 					"/>
					<polygon class="st15" points="69.96,69.53 69.96,117.62 102.75,136.45 102.75,88.37 					"/>
					<polygon class="st28" points="102.75,88.37 102.75,90.17 70.18,71.46 70.18,69.66 					"/>
					<polygon class="st28" points="70.18,71.46 69.96,70.69 69.96,70.6 69.12,70.02 70.09,70.15 70.18,69.66 					"/>
				</g>
				<g>
					<g>
						<polygon class="st15" points="78.26,120.87 71.59,117.01 71.59,111.52 78.26,115.38 						"/>
						<polygon class="st15" points="78,115.53 78,120.05 72.16,116.68 72.16,112.16 						"/>
						<polygon class="st29" points="72.48,116.5 72.48,112.7 77.68,115.71 77.68,119.51 						"/>
						<polygon class="st7" points="72.74,116.35 72.74,112.86 72.48,112.7 72.48,116.5 77.68,119.51 77.68,119.2 						"/>
						<polygon class="st13" points="72.48,116.5 72.74,116.35 72.74,112.86 72.48,112.7 						"/>
						<polygon class="st30" points="78,120.05 78,120.41 71.85,116.86 71.85,111.98 72.16,112.16 72.16,116.68 						"/>
						<polygon class="st7" points="78,120.05 78,120.41 71.85,116.86 71.85,111.98 72.16,112.16 72.16,116.68 						"/>
						<polygon class="st13" points="72.16,116.68 71.85,116.86 71.85,111.98 72.16,112.16 						"/>
					</g>
					<g>
						<polygon class="st15" points="85.41,125.01 78.74,121.15 78.74,115.65 85.41,119.51 						"/>
						<polygon class="st15" points="85.15,119.67 85.15,124.18 79.31,120.81 79.31,116.29 						"/>
						<polygon class="st29" points="79.63,120.63 79.63,116.84 84.83,119.85 84.83,123.64 						"/>
						<polygon class="st7" points="79.89,120.48 79.89,116.99 79.63,116.84 79.63,120.63 84.83,123.64 84.83,123.34 						"/>
						<polygon class="st13" points="79.63,120.63 79.89,120.48 79.89,116.99 79.63,116.84 						"/>
						<polygon class="st30" points="85.15,124.18 85.15,124.54 79,120.99 79,116.12 79.31,116.29 79.31,120.81 						"/>
						<polygon class="st7" points="85.15,124.18 85.15,124.54 79,120.99 79,116.12 79.31,116.29 79.31,120.81 						"/>
						<polygon class="st13" points="79.31,120.81 79,120.99 79,116.12 79.31,116.29 						"/>
					</g>
					<g>
						<polygon class="st15" points="92.57,129.14 85.89,125.28 85.89,119.79 92.57,123.64 						"/>
						<polygon class="st15" points="92.3,123.8 92.3,128.32 86.46,124.95 86.46,120.43 						"/>
						<polygon class="st29" points="86.78,124.77 86.78,120.97 91.99,123.98 91.99,127.77 						"/>
						<polygon class="st7" points="87.04,124.61 87.04,121.12 86.78,120.97 86.78,124.77 91.99,127.77 91.99,127.47 						"/>
						<polygon class="st13" points="86.78,124.77 87.04,124.61 87.04,121.12 86.78,120.97 						"/>
						<polygon class="st30" points="92.3,128.32 92.3,128.68 86.15,125.13 86.15,120.25 86.46,120.43 86.46,124.95 						"/>
						<polygon class="st7" points="92.3,128.32 92.3,128.68 86.15,125.13 86.15,120.25 86.46,120.43 86.46,124.95 						"/>
						<polygon class="st13" points="86.47,124.95 86.16,125.13 86.16,120.25 86.47,120.43 						"/>
					</g>
					<g>
						<polygon class="st15" points="99.72,133.27 93.04,129.41 93.04,123.92 99.72,127.78 						"/>
						<polygon class="st15" points="99.45,127.93 99.45,132.45 93.62,129.08 93.62,124.56 						"/>
						<polygon class="st29" points="93.93,128.9 93.93,125.1 99.14,128.11 99.14,131.91 						"/>
						<polygon class="st7" points="94.19,128.75 94.19,125.26 93.93,125.1 93.93,128.9 99.14,131.91 99.14,131.6 						"/>
						<polygon class="st13" points="93.93,128.9 94.19,128.75 94.19,125.26 93.93,125.1 						"/>
						<polygon class="st30" points="99.45,132.45 99.45,132.81 93.31,129.26 93.31,124.38 93.62,124.56 93.62,129.08 						"/>
						<polygon class="st7" points="99.45,132.45 99.45,132.81 93.31,129.26 93.31,124.38 93.62,124.56 93.62,129.08 						"/>
						<polygon class="st13" points="93.62,129.08 93.31,129.26 93.31,124.38 93.62,124.56 						"/>
					</g>
				</g>
				<g>
					<polygon class="st7" points="101.91,86.99 69.12,68.16 70.36,67.46 103.15,86.3 					"/>
					<polygon class="st13" points="101.91,88.86 103.15,88.16 103.15,86.3 101.91,86.99 					"/>
					<polygon class="st15" points="69.12,68.16 69.12,70.02 101.91,88.86 101.91,86.99 					"/>
				</g>
				<g>
					<g>
						<g>
							<g>
								<g>
									<g>
										<g>
											<g>
												<polygon class="st15" points="71.59,110.84 71.59,79.64 78.26,83.49 78.26,114.7 												"/>
												<polygon class="st31" points="72.37,81 72.37,110.39 77.48,113.34 77.48,83.95 												"/>
												<polygon class="st13" points="73.25,81.51 73.25,110.02 77.48,112.45 77.48,113.34 72.37,110.39 72.37,81 												
													"/>
												<polygon class="st7" points="73.25,110.02 72.37,110.39 77.48,113.34 77.48,112.45 												"/>
												<g>
													<polygon class="st10" points="72.37,110.4 73.9,110.4 73.92,81.9 73.25,81.51 73.25,110.02 													"/>
												</g>
											</g>
										</g>
										<g>
											<polygon class="st15" points="78.74,114.97 78.74,83.77 85.41,87.62 85.41,118.82 											"/>
											<polygon class="st31" points="79.52,85.13 79.52,114.52 84.63,117.46 84.63,88.07 											"/>
											<polygon class="st13" points="80.4,85.64 80.4,114.14 84.63,116.58 84.63,117.46 79.52,114.52 79.52,85.13 											
												"/>
											<polygon class="st7" points="80.4,114.14 79.52,114.52 84.63,117.46 84.63,116.58 											"/>
											<g>
												<polygon class="st10" points="79.52,114.52 81.05,114.52 81.07,86.02 80.4,85.64 80.4,114.14 												"/>
											</g>
										</g>
										<g>
											<polygon class="st15" points="85.89,119.1 85.89,87.89 92.57,91.75 92.57,122.95 											"/>
											<polygon class="st31" points="86.67,89.25 86.67,118.64 91.78,121.59 91.78,92.2 											"/>
											<polygon class="st13" points="87.55,89.76 87.55,118.27 91.78,120.71 91.78,121.59 86.67,118.65 86.67,89.25 											
												"/>
											<polygon class="st7" points="87.55,118.27 86.67,118.65 91.78,121.59 91.78,120.71 											"/>
										</g>
										<g>
											<g>
												<polygon class="st15" points="93.04,123.22 93.04,92.02 99.72,95.87 99.72,127.07 												"/>
												<polygon class="st31" points="93.82,93.38 93.82,122.77 98.93,125.72 98.93,96.32 												"/>
												<polygon class="st13" points="94.7,93.89 94.7,122.4 98.93,124.83 98.93,125.72 93.82,122.77 93.82,93.38 												
													"/>
												<polygon class="st7" points="94.7,122.4 93.82,122.77 98.93,125.72 98.93,124.83 												"/>
												<g>
													<polygon class="st10" points="93.82,122.77 95.35,122.77 95.37,94.27 94.7,93.89 94.7,122.4 													"/>
												</g>
											</g>
										</g>
									</g>
								</g>
							</g>
						</g>
					</g>
				</g>
				<g>
					<polygon class="st10" points="86.67,118.65 88.2,118.65 88.22,90.15 87.55,89.76 87.55,118.27 					"/>
				</g>
				<g>
					<g>
						<polygon class="st15" points="78.26,82.34 71.59,78.48 71.59,72.98 78.26,76.84 						"/>
						<polygon class="st15" points="78,77 78,81.52 72.16,78.14 72.16,73.63 						"/>
						<polygon class="st29" points="72.48,77.96 72.48,74.17 77.68,77.18 77.68,80.97 						"/>
						<polygon class="st7" points="72.74,77.81 72.74,74.32 72.48,74.17 72.48,77.96 77.68,80.97 77.68,80.67 						"/>
						<polygon class="st13" points="72.48,77.96 72.74,77.81 72.74,74.32 72.48,74.17 						"/>
						<polygon class="st30" points="78,81.52 78,81.87 71.85,78.33 71.85,73.45 72.16,73.63 72.16,78.14 						"/>
						<polygon class="st7" points="78,81.52 78,81.87 71.85,78.33 71.85,73.45 72.16,73.63 72.16,78.14 						"/>
						<polygon class="st13" points="72.16,78.15 71.85,78.32 71.85,73.45 72.16,73.63 						"/>
					</g>
					<g>
						<polygon class="st15" points="85.41,86.47 78.74,82.61 78.74,77.12 85.41,80.98 						"/>
						<polygon class="st15" points="85.15,81.13 85.15,85.65 79.31,82.28 79.31,77.76 						"/>
						<polygon class="st29" points="79.63,82.1 79.63,78.3 84.83,81.31 84.83,85.11 						"/>
						<polygon class="st7" points="79.89,81.94 79.89,78.45 79.63,78.3 79.63,82.1 84.83,85.11 84.83,84.8 						"/>
						<polygon class="st13" points="79.63,82.1 79.89,81.94 79.89,78.45 79.63,78.3 						"/>
						<polygon class="st30" points="85.15,85.65 85.15,86.01 79,82.46 79,77.58 79.31,77.76 79.31,82.28 						"/>
						<polygon class="st7" points="85.15,85.65 85.15,86.01 79,82.46 79,77.58 79.31,77.76 79.31,82.28 						"/>
						<polygon class="st13" points="79.31,82.28 79,82.46 79,77.58 79.31,77.76 						"/>
					</g>
					<g>
						<polygon class="st15" points="92.57,90.6 85.89,86.74 85.89,81.25 92.57,85.11 						"/>
						<polygon class="st15" points="92.3,85.26 92.3,89.78 86.46,86.41 86.46,81.89 						"/>
						<polygon class="st29" points="86.78,86.23 86.78,82.43 91.99,85.44 91.99,89.24 						"/>
						<polygon class="st7" points="87.04,86.08 87.04,82.59 86.78,82.43 86.78,86.23 91.99,89.24 91.99,88.93 						"/>
						<polygon class="st13" points="86.78,86.23 87.04,86.08 87.04,82.59 86.78,82.43 						"/>
						<polygon class="st30" points="92.3,89.78 92.3,90.14 86.15,86.59 86.15,81.71 86.46,81.89 86.46,86.41 						"/>
						<polygon class="st7" points="92.3,89.78 92.3,90.14 86.15,86.59 86.15,81.71 86.46,81.89 86.46,86.41 						"/>
						<polygon class="st13" points="86.47,86.41 86.16,86.59 86.16,81.71 86.47,81.89 						"/>
					</g>
					<g>
						<polygon class="st15" points="99.72,94.74 93.04,90.88 93.04,85.38 99.72,89.24 						"/>
						<polygon class="st15" points="99.45,89.4 99.45,93.91 93.62,90.54 93.62,86.02 						"/>
						<polygon class="st29" points="93.93,90.36 93.93,86.57 99.14,89.58 99.14,93.37 						"/>
						<polygon class="st7" points="94.19,90.21 94.19,86.72 93.93,86.57 93.93,90.36 99.14,93.37 99.14,93.07 						"/>
						<polygon class="st13" points="93.93,90.36 94.19,90.21 94.19,86.72 93.93,86.57 						"/>
						<polygon class="st30" points="99.45,93.91 99.45,94.27 93.31,90.72 93.31,85.85 93.62,86.02 93.62,90.54 						"/>
						<polygon class="st7" points="99.45,93.91 99.45,94.27 93.31,90.72 93.31,85.85 93.62,86.02 93.62,90.54 						"/>
						<polygon class="st13" points="93.62,90.54 93.31,90.72 93.31,85.85 93.62,86.02 						"/>
					</g>
				</g>
				<polygon class="st20" points="103.15,86.3 104.06,87.78 104.06,88.63 103.52,88.26 103.61,136.45 103.15,136.22 				"/>
				<g>
					<polygon class="st19" points="126.29,128.2 114.35,135.1 114.35,100.53 126.29,93.63 					"/>
					<polygon class="st15" points="126.29,128.2 127.61,128.99 127.61,92.86 126.29,93.63 					"/>
					<polygon class="st13" points="128.93,128.22 127.61,128.99 127.61,91.59 128.93,90.8 					"/>
					<g>
						<g>
							<polygon class="st7" points="124.91,115.56 124.68,115.4 125.76,114.79 125.99,114.94 							"/>
							<polygon class="st13" points="124.91,116.65 125.99,116.03 125.99,114.94 124.91,115.56 							"/>
							<polygon class="st15" points="124.68,115.4 124.68,116.49 124.91,116.65 124.91,115.56 							"/>
						</g>
						<g>
							<polygon class="st7" points="126.1,116.32 125.14,115.7 125.66,115.4 126.62,116.03 							"/>
							<polygon class="st13" points="126.1,116.85 126.62,116.55 126.62,116.03 126.1,116.32 							"/>
							<polygon class="st15" points="125.14,115.7 125.14,116.22 126.1,116.85 126.1,116.32 							"/>
						</g>
						<g>
							<polygon class="st7" points="126.02,116.38 125.41,115.97 126.49,115.35 127.1,115.76 							"/>
							<polygon class="st13" points="126.02,117.47 127.1,116.86 127.1,115.76 126.02,116.38 							"/>
							<polygon class="st15" points="125.41,115.97 125.41,117.06 126.02,117.47 126.02,116.38 							"/>
						</g>
					</g>
					<g>
						<polygon class="st19" points="116.42,131.22 124.21,126.71 124.21,120.3 116.42,124.81 						"/>
						<polygon class="st19" points="116.73,124.99 116.73,130.26 123.54,126.32 123.54,121.05 						"/>
						<polygon class="st32" points="123.18,126.11 123.18,121.69 117.1,125.2 117.1,129.62 						"/>
						<polygon class="st21" points="122.87,125.94 122.87,121.86 123.18,121.69 123.18,126.11 117.1,129.62 117.1,129.27 						"/>
						<polygon class="st26" points="123.18,126.11 122.87,125.94 122.87,121.86 123.18,121.69 						"/>
						<polygon class="st30" points="116.73,130.26 116.73,130.68 123.9,126.54 123.9,120.84 123.54,121.05 123.54,126.32 						"/>
						<polygon class="st21" points="116.73,130.26 116.73,130.68 123.9,126.54 123.9,120.84 123.54,121.05 123.54,126.32 						"/>
						<polygon class="st26" points="123.54,126.33 123.9,126.53 123.9,120.84 123.54,121.05 						"/>
					</g>
					<g>
						<polygon class="st33" points="124.28,97.72 124.28,119.52 116.42,124.04 116.42,102.24 						"/>
						<polygon class="st26" points="123.53,98.16 123.53,119.2 116.42,123.28 116.42,124.04 124.28,119.52 124.28,97.72 						"/>
						<polygon class="st21" points="123.53,119.2 124.28,119.52 116.42,124.04 116.42,123.28 						"/>
					</g>
					<polygon class="st13" points="128.93,90.8 113.17,99.9 113.17,101.22 128.93,92.12 					"/>
					<polygon class="st13" points="114.35,136.65 113.17,137.33 113.17,99.9 114.35,99.22 					"/>
				</g>
				<polygon class="st5" points="114.35,136.65 114.35,135.1 126.29,128.2 127.61,128.99 				"/>
				<polygon class="st5" points="114.35,136.65 114.35,135.1 126.29,128.2 127.61,128.99 				"/>
				<g>
					<polygon class="st29" points="142.09,129.75 186.73,155.34 186.73,120.77 142.09,95.18 					"/>
					<g>
						<g>
							<polygon class="st13" points="186.73,150.88 186.73,151.41 142.09,125.52 142.09,124.99 							"/>
							<polygon class="st13" points="186.73,144.23 186.73,144.76 142.09,118.87 142.09,118.34 							"/>
							<polygon class="st13" points="186.73,137.58 186.73,138.11 142.09,112.22 142.09,111.68 							"/>
							<polygon class="st13" points="186.73,130.93 186.73,131.46 142.09,105.57 142.09,105.03 							"/>
							<polygon class="st13" points="186.73,124.28 186.73,124.81 142.09,98.91 142.09,98.39 							"/>
						</g>
						<g>
							<polygon class="st7" points="186.73,151.19 186.73,151.71 142.09,125.83 142.09,125.29 							"/>
							<polygon class="st7" points="186.73,144.53 186.73,145.07 142.09,119.17 142.09,118.64 							"/>
							<polygon class="st7" points="186.73,137.88 186.73,138.42 142.09,112.52 142.09,111.99 							"/>
							<polygon class="st7" points="186.73,131.23 186.73,131.76 142.09,105.87 142.09,105.34 							"/>
							<polygon class="st7" points="186.73,124.58 186.73,125.11 142.09,99.22 142.09,98.69 							"/>
						</g>
					</g>
					<polygon class="st13" points="142.09,129.75 140.77,130.54 140.77,94.41 142.09,95.18 					"/>
					<polygon class="st15" points="139.46,129.77 140.77,130.54 140.77,93.14 139.46,92.35 					"/>
					<polygon class="st15" points="139.46,92.35 187.91,120.14 187.91,121.46 139.46,93.67 					"/>
					<polygon class="st15" points="186.73,156.89 187.91,157.57 187.91,120.14 186.73,119.46 					"/>
				</g>
				<polygon class="st7" points="140.77,130.54 142.09,129.75 186.73,155.34 186.73,156.89 				"/>
				<g>
					<polygon class="st7" points="187.29,119.54 137.96,91.21 139.8,90.16 189.13,118.49 					"/>
					<polygon class="st13" points="187.29,121.4 189.13,120.35 189.13,118.49 187.29,119.54 					"/>
					<polygon class="st15" points="137.96,91.21 137.96,93.07 187.29,121.4 187.29,119.54 					"/>
				</g>
				<g>
					<g>
						<polygon class="st15" points="149.87,109.43 143.19,105.57 143.19,100.08 149.87,103.94 						"/>
						<polygon class="st15" points="149.6,104.09 149.6,108.61 143.76,105.24 143.76,100.72 						"/>
						<polygon class="st31" points="144.08,105.06 144.08,101.26 149.29,104.27 149.29,108.07 						"/>
						<polygon class="st7" points="144.34,104.91 144.34,101.42 144.08,101.26 144.08,105.06 149.29,108.07 149.29,107.76 						"/>
						<polygon class="st13" points="144.08,105.06 144.34,104.91 144.34,101.42 144.08,101.26 						"/>
						<polygon class="st30" points="149.6,108.61 149.6,108.97 143.45,105.42 143.45,100.54 143.76,100.72 143.76,105.24 						"/>
						<polygon class="st7" points="149.6,108.61 149.6,108.97 143.45,105.42 143.45,100.54 143.76,100.72 143.76,105.24 						"/>
						<polygon class="st13" points="143.77,105.24 143.46,105.42 143.46,100.54 143.77,100.72 						"/>
					</g>
					<g>
						<polygon class="st15" points="158.65,114.53 151.97,110.67 151.97,105.17 158.65,109.03 						"/>
						<polygon class="st15" points="158.39,109.19 158.39,113.7 152.55,110.33 152.55,105.81 						"/>
						<polygon class="st31" points="152.86,110.15 152.86,106.36 158.07,109.37 158.07,113.16 						"/>
						<polygon class="st7" points="153.13,110 153.13,106.51 152.86,106.36 152.86,110.15 158.07,113.16 158.07,112.86 						"/>
						<polygon class="st13" points="152.86,110.15 153.13,110 153.13,106.51 152.86,106.36 						"/>
						<polygon class="st30" points="158.39,113.7 158.39,114.06 152.24,110.51 152.24,105.64 152.55,105.81 152.55,110.33 						"/>
						<polygon class="st7" points="158.39,113.7 158.39,114.06 152.24,110.51 152.24,105.64 152.55,105.81 152.55,110.33 						"/>
						<polygon class="st13" points="152.55,110.33 152.24,110.51 152.24,105.64 152.55,105.81 						"/>
					</g>
					<g>
						<polygon class="st15" points="167.44,119.62 160.76,115.76 160.76,110.27 167.44,114.12 						"/>
						<polygon class="st15" points="167.17,114.28 167.17,118.8 161.34,115.43 161.34,110.91 						"/>
						<polygon class="st31" points="161.65,115.24 161.65,111.45 166.86,114.46 166.86,118.25 						"/>
						<polygon class="st7" points="161.91,115.09 161.91,111.6 161.65,111.45 161.65,115.24 166.86,118.25 166.86,117.95 						"/>
						<polygon class="st13" points="161.65,115.24 161.91,115.09 161.91,111.6 161.65,111.45 						"/>
						<polygon class="st30" points="167.17,118.8 167.17,119.15 161.03,115.61 161.03,110.73 161.34,110.91 161.34,115.43 						"/>
						<polygon class="st7" points="167.17,118.8 167.17,119.15 161.03,115.61 161.03,110.73 161.34,110.91 161.34,115.43 						"/>
						<polygon class="st13" points="161.34,115.43 161.03,115.61 161.03,110.73 161.34,110.91 						"/>
					</g>
					<g>
						<polygon class="st15" points="176.23,124.71 169.55,120.85 169.55,115.36 176.23,119.22 						"/>
						<polygon class="st15" points="175.96,119.37 175.96,123.89 170.12,120.52 170.12,116 						"/>
						<polygon class="st31" points="170.44,120.34 170.44,116.54 175.65,119.55 175.65,123.35 						"/>
						<polygon class="st7" points="170.7,120.18 170.7,116.69 170.44,116.54 170.44,120.34 175.65,123.35 175.65,123.04 						"/>
						<polygon class="st13" points="170.44,120.34 170.7,120.18 170.7,116.69 170.44,116.54 						"/>
						<polygon class="st30" points="175.96,123.89 175.96,124.25 169.81,120.7 169.81,115.82 170.12,116 170.12,120.52 						"/>
						<polygon class="st7" points="175.96,123.89 175.96,124.25 169.81,120.7 169.81,115.82 170.12,116 170.12,120.52 						"/>
						<polygon class="st13" points="170.13,120.52 169.82,120.7 169.82,115.82 170.13,116 						"/>
					</g>
					<g>
						<polygon class="st15" points="185.01,129.8 178.33,125.95 178.33,120.45 185.01,124.31 						"/>
						<polygon class="st15" points="184.75,124.46 184.75,128.98 178.91,125.61 178.91,121.09 						"/>
						<polygon class="st31" points="179.22,125.43 179.22,121.64 184.43,124.65 184.43,128.44 						"/>
						<polygon class="st7" points="179.49,125.28 179.49,121.79 179.22,121.64 179.22,125.43 184.43,128.44 184.43,128.14 						"/>
						<polygon class="st13" points="179.22,125.43 179.49,125.28 179.49,121.79 179.22,121.64 						"/>
						<polygon class="st30" points="184.75,128.98 184.75,129.34 178.6,125.79 178.6,120.91 178.91,121.09 178.91,125.61 						"/>
						<polygon class="st7" points="184.75,128.98 184.75,129.34 178.6,125.79 178.6,120.91 178.91,121.09 178.91,125.61 						"/>
						<polygon class="st13" points="178.91,125.61 178.6,125.79 178.6,120.91 178.91,121.09 						"/>
					</g>
				</g>
				<polygon class="st20" points="189.13,118.49 191.15,120.67 191.15,123.35 188.35,121.72 188.38,157.84 187.91,157.57 
					187.91,121.04 189.13,120.35 				"/>
				<polygon class="st28" points="186.76,121.09 142.09,95.45 142.09,129.75 140.77,130.54 143.57,130.54 143.61,98.39 
					186.73,123.07 				"/>
				<g>
					<g>
						<g>
							<polygon class="st23" points="167.07,62.46 176.62,55.31 179.99,49.82 180.21,47.92 167.07,40.6 162.79,40.6 164,51.97 
															"/>
						</g>
						<g>
							<g>
								<g>
									<polygon class="st13" points="171.38,47.6 171.38,54.91 167.07,62.46 167.07,49.57 									"/>
									<polygon class="st15" points="167.07,62.46 158.52,57.52 158.52,44.63 167.07,49.57 									"/>
									<g>
										<polygon class="st7" points="165.87,49.28 156.26,43.72 162.95,39.98 172.56,45.54 										"/>
										<polygon class="st25" points="165.87,48.85 156.26,43.3 162.95,39.55 172.56,45.11 										"/>
										<polygon class="st13" points="166.51,50.31 171.38,47.6 172.56,45.54 165.87,49.28 										"/>
										<polygon class="st34" points="156.26,43.72 156.9,44.76 166.51,50.31 165.87,49.28 										"/>
									</g>
								</g>
								<polygon class="st19" points="165.87,49.28 165.87,48.85 172.56,45.11 172.56,45.54 								"/>
								<polygon class="st26" points="165.87,49.28 165.87,48.85 156.26,43.3 156.26,43.72 								"/>
							</g>
							<g>
								<polygon class="st15" points="159.28,57.31 159.28,47.08 166.31,51.13 166.31,61.37 								"/>
								<polygon class="st31" points="160.1,48.51 160.1,56.83 165.48,59.94 165.48,51.61 								"/>
								<polygon class="st13" points="161.03,49.04 161.03,56.44 165.48,59.01 165.48,59.94 160.1,56.84 160.1,48.51 								"/>
								<polygon class="st7" points="161.03,56.44 160.1,56.84 165.48,59.94 165.48,59.01 								"/>
								<g>
									<polygon class="st10" points="160.1,56.84 161.72,56.84 161.73,49.45 161.03,49.04 161.03,56.44 									"/>
								</g>
							</g>
						</g>
					</g>
					<g>
						<polygon class="st23" points="185.12,72.8 194.67,65.64 198.05,60.16 198.27,58.26 185.12,50.94 180.85,50.94 182.06,62.31 
													"/>
						<g>
							<g>
								<g>
									<polygon class="st13" points="189.43,57.94 189.43,65.25 185.12,72.8 185.12,59.91 									"/>
									<polygon class="st15" points="185.12,72.8 176.57,67.86 176.57,54.97 185.12,59.91 									"/>
									<g>
										<polygon class="st7" points="183.93,59.62 174.31,54.06 181.01,50.32 190.62,55.87 										"/>
										<polygon class="st25" points="183.93,59.19 174.31,53.63 181.01,49.89 190.62,55.45 										"/>
										<polygon class="st13" points="184.57,60.65 189.43,57.94 190.62,55.87 183.93,59.62 										"/>
										<polygon class="st34" points="174.31,54.06 174.96,55.1 184.57,60.65 183.93,59.62 										"/>
									</g>
								</g>
								<polygon class="st19" points="183.93,59.62 183.93,59.19 190.62,55.45 190.62,55.87 								"/>
								<polygon class="st26" points="183.93,59.62 183.93,59.19 174.31,53.63 174.31,54.06 								"/>
							</g>
							<g>
								<polygon class="st15" points="177.33,67.65 177.33,57.42 184.36,61.47 184.36,71.7 								"/>
								<polygon class="st31" points="178.16,58.85 178.16,67.17 183.54,70.27 183.54,61.95 								"/>
								<polygon class="st13" points="179.08,59.38 179.08,66.78 183.54,69.34 183.54,70.27 178.16,67.17 178.16,58.85 								"/>
								<polygon class="st7" points="179.08,66.78 178.16,67.17 183.54,70.27 183.54,69.34 								"/>
								<polygon class="st10" points="178.16,67.17 179.77,67.17 179.79,59.79 179.08,59.38 179.08,66.78 								"/>
							</g>
						</g>
					</g>
					<g>
						<g>
							<polygon class="st23" points="203.18,83.14 212.73,75.98 216.1,70.5 216.32,68.6 203.18,61.28 198.9,61.28 200.11,72.65 
															"/>
						</g>
						<g>
							<g>
								<g>
									<polygon class="st13" points="207.49,68.28 207.49,75.59 203.18,83.14 203.18,70.25 									"/>
									<polygon class="st15" points="203.18,83.14 194.63,78.2 194.63,65.31 203.18,70.25 									"/>
									<g>
										<polygon class="st7" points="201.98,69.96 192.37,64.4 199.06,60.66 208.67,66.21 										"/>
										<polygon class="st25" points="201.98,69.53 192.37,63.97 199.06,60.23 208.67,65.78 										"/>
										<polygon class="st13" points="202.62,70.99 207.49,68.28 208.67,66.21 201.98,69.96 										"/>
										<polygon class="st34" points="192.37,64.4 193.01,65.44 202.62,70.99 201.98,69.96 										"/>
									</g>
								</g>
								<polygon class="st19" points="201.98,69.96 201.98,69.53 208.67,65.78 208.67,66.21 								"/>
								<polygon class="st26" points="201.98,69.96 201.98,69.53 192.37,63.97 192.37,64.4 								"/>
							</g>
							<g>
								<polygon class="st15" points="195.39,77.99 195.39,67.76 202.42,71.81 202.42,82.04 								"/>
								<polygon class="st31" points="196.21,69.19 196.21,77.51 201.59,80.61 201.59,72.29 								"/>
								<polygon class="st13" points="197.14,69.72 197.14,77.12 201.59,79.68 201.59,80.61 196.21,77.51 196.21,69.19 								"/>
								<polygon class="st7" points="197.14,77.12 196.21,77.51 201.59,80.61 201.59,79.68 								"/>
								<g>
									<polygon class="st10" points="196.21,77.51 197.83,77.51 197.84,70.13 197.14,69.72 197.14,77.12 									"/>
								</g>
							</g>
						</g>
					</g>
				</g>
			</g>
		</g>
		<g>
			<path class="st5" d="M210.94,195.41l-2.6-1.5l-1.87,1.18l-32.07-18.56l-2.54,1.49l6.44,3.76l-0.92,0.53l-1.64-0.95l-7.68,4.43
				l13.46,7.77l7.68-4.43l-2.99-1.72l0.87-0.5l17.13,10l-10.7,6.02l1.42,3.92l3.26,4.81h3l3.65-2.48l-8.23-4.87L210.94,195.41z
				 M185.61,187.06l-7.64-4.41l0.92-0.53l7.6,4.43L185.61,187.06z"/>
			<g>
				<g>
					<polygon class="st6" points="198.2,211.65 184.17,203.58 184.04,202.03 198.2,210.17 					"/>
					<polygon class="st1" points="198.2,210.17 201.2,208.43 201.2,209.91 198.2,211.65 					"/>
					<polygon class="st35" points="184.04,202.03 187.05,200.29 201.2,208.43 198.2,210.17 					"/>
					<polygon class="st6" points="199.48,207.43 193.76,207.37 194.93,204.79 					"/>
				</g>
				<g>
					<polygon class="st6" points="193.76,165.13 193.76,207.37 190.57,205.53 190.57,163.29 					"/>
					<polygon class="st6" points="193.76,165.13 193.76,166.94 190.57,165.1 190.57,163.29 					"/>
					<polygon class="st1" points="193.76,207.37 196.43,205.83 196.43,163.6 193.76,165.13 					"/>
					<polygon class="st6" points="193.76,165.13 193.76,166.94 196.95,165.1 196.95,163.29 					"/>
				</g>
				<g>
					<g>
						<polygon class="st6" points="186.77,178.82 185.98,179.3 185.98,164.17 186.77,163.7 						"/>
						<polygon class="st36" points="185.98,164.17 186.77,163.7 167.08,152.33 166.29,152.81 						"/>
						<polygon class="st35" points="185.98,179.3 166.29,167.93 166.29,152.81 185.98,164.17 						"/>
						<polygon class="st37" points="184.66,177.57 167.6,167.72 167.6,155.13 184.66,164.98 						"/>
						<g>
							<path class="st7" d="M173.4,160.48l-1.88-1.09v1.21l1.62,0.93v0.51l-1.62-0.93v2.06l-0.5-0.29v-4.27l2.38,1.37V160.48z"/>
							<path class="st7" d="M176.74,162.4c0.15,0.28,0.27,0.58,0.35,0.9c0.08,0.32,0.12,0.66,0.12,1.02c0,0.35-0.04,0.64-0.13,0.87
								c-0.08,0.23-0.2,0.4-0.34,0.5c-0.15,0.11-0.34,0.14-0.54,0.12c-0.21-0.02-0.45-0.11-0.72-0.27c-0.26-0.15-0.5-0.34-0.71-0.56
								c-0.21-0.22-0.4-0.47-0.55-0.75c-0.15-0.27-0.26-0.57-0.35-0.9c-0.08-0.32-0.12-0.66-0.12-1.01c0-0.35,0.04-0.64,0.12-0.87
								c0.08-0.23,0.2-0.4,0.35-0.51c0.14-0.1,0.33-0.14,0.55-0.11c0.22,0.02,0.46,0.11,0.71,0.26c0.27,0.15,0.51,0.34,0.72,0.57
								C176.41,161.88,176.59,162.13,176.74,162.4z M176.69,164.02c0-0.55-0.11-1.05-0.32-1.47c-0.22-0.43-0.51-0.75-0.89-0.96
								c-0.38-0.22-0.67-0.24-0.89-0.06c-0.22,0.18-0.32,0.54-0.32,1.1c0,0.56,0.11,1.05,0.33,1.48c0.22,0.42,0.52,0.74,0.88,0.96
								c0.37,0.21,0.66,0.23,0.88,0.06C176.58,164.94,176.69,164.58,176.69,164.02z"/>
							<path class="st7" d="M181.07,168.68l-0.64-0.37l-1.25-2.42l-0.7-0.4v1.7l-0.5-0.29v-4.27l1.04,0.6
								c0.22,0.13,0.41,0.25,0.56,0.37c0.15,0.12,0.29,0.26,0.4,0.41c0.14,0.18,0.24,0.36,0.32,0.55c0.08,0.19,0.11,0.4,0.11,0.63
								c0,0.31-0.07,0.53-0.2,0.66c-0.14,0.13-0.32,0.18-0.56,0.15L181.07,168.68z M179.91,164.94c0-0.12-0.02-0.24-0.05-0.36
								c-0.04-0.12-0.1-0.23-0.19-0.35c-0.07-0.1-0.16-0.18-0.25-0.26c-0.1-0.08-0.22-0.16-0.35-0.23l-0.58-0.34v1.61l0.5,0.29
								c0.16,0.09,0.3,0.15,0.41,0.19c0.11,0.04,0.22,0.04,0.29-0.01c0.08-0.04,0.13-0.1,0.17-0.18
								C179.9,165.23,179.91,165.1,179.91,164.94z"/>
							<path class="st7" d="M173.02,168.13c0,0.17-0.03,0.31-0.1,0.44c-0.07,0.12-0.16,0.21-0.28,0.25
								c-0.13,0.04-0.29,0.05-0.47,0.02c-0.18-0.03-0.39-0.12-0.64-0.27c-0.27-0.15-0.51-0.32-0.72-0.5
								c-0.21-0.18-0.43-0.39-0.65-0.63v-0.71l0.03,0.02c0.19,0.29,0.41,0.55,0.65,0.79c0.25,0.24,0.48,0.42,0.7,0.55
								c0.31,0.18,0.55,0.25,0.72,0.22c0.17-0.03,0.26-0.16,0.26-0.38c0-0.19-0.04-0.35-0.13-0.49c-0.08-0.14-0.2-0.28-0.37-0.42
								c-0.13-0.11-0.26-0.22-0.4-0.33c-0.14-0.11-0.3-0.23-0.46-0.36c-0.33-0.27-0.58-0.55-0.73-0.83
								c-0.16-0.29-0.24-0.59-0.24-0.9c0-0.36,0.13-0.57,0.39-0.65c0.26-0.07,0.6,0,1,0.24c0.26,0.15,0.5,0.32,0.72,0.5
								c0.22,0.18,0.41,0.37,0.58,0.55v0.67l-0.04-0.02c-0.14-0.22-0.33-0.44-0.56-0.67c-0.23-0.22-0.47-0.41-0.71-0.55
								c-0.26-0.15-0.48-0.21-0.64-0.18c-0.16,0.03-0.24,0.15-0.24,0.35c0,0.18,0.04,0.34,0.12,0.49c0.08,0.15,0.22,0.31,0.42,0.48
								c0.11,0.09,0.26,0.21,0.46,0.36c0.2,0.15,0.36,0.29,0.5,0.41c0.28,0.24,0.48,0.49,0.63,0.74
								C172.95,167.54,173.02,167.82,173.02,168.13z"/>
							<path class="st7" d="M176.7,171.47l-0.53-0.31l-0.37-1.4l-1.61-0.93l-0.37,0.98l-0.5-0.29l1.35-3.49l0.66,0.38L176.7,171.47z
								 M175.65,169.19l-0.65-2.47l-0.66,1.72L175.65,169.19z"/>
							<path class="st7" d="M179.62,173.16l-2.36-1.36v-4.27l0.5,0.29v3.77l1.86,1.07V173.16z"/>
							<path class="st7" d="M182.57,174.86l-2.45-1.42v-4.27l2.45,1.42v0.51l-1.96-1.13v1.17l1.96,1.13v0.5l-1.96-1.13v1.59
								l1.96,1.13V174.86z"/>
						</g>
					</g>
					<g>
						<g>
							<path class="st7" d="M184.03,163.86c0,0.34-0.24,0.48-0.54,0.31c-0.3-0.17-0.54-0.59-0.54-0.93c0-0.34,0.24-0.48,0.54-0.31
								C183.79,163.1,184.03,163.52,184.03,163.86z"/>
							<path class="st6" d="M183.49,162.95c0-0.01,0-0.01,0-0.02l0,0c-0.3-0.17-0.54-0.03-0.54,0.31c0,0.34,0.24,0.76,0.54,0.93
								c0.29,0.17,0.53,0.04,0.54-0.29C183.73,163.71,183.49,163.29,183.49,162.95z"/>
						</g>
						<g>
							<path class="st1" d="M185.45,160.05c-0.32-0.18-0.73-0.15-1.16,0.1c-0.5,0.29-0.94,0.82-1.21,1.41
								c-0.18,0.38-0.28,0.79-0.28,1.17c0,0.3,0.07,0.56,0.19,0.75c0,0,0,0,0,0.01c0.08,0.12,0.18,0.21,0.29,0.28
								c0.14,0.07,0.29,0.11,0.44,0.11c0.1,0,0.19-0.01,0.3-0.04c0-0.1-0.02-0.2-0.06-0.3c-0.2,0.06-0.39,0.05-0.53-0.04
								c-0.19-0.11-0.3-0.32-0.33-0.62c-0.01-0.05-0.01-0.1-0.01-0.16c0-0.32,0.09-0.68,0.24-1.02c0.24-0.54,0.65-1.04,1.1-1.3
								c0.2-0.12,0.39-0.18,0.56-0.18c0.11,0,0.21,0.03,0.3,0.07c0.22,0.13,0.34,0.4,0.34,0.78c0,0.53-0.23,1.13-0.59,1.61
								l0.26,0.15c0.38-0.53,0.63-1.19,0.63-1.76C185.94,160.61,185.76,160.23,185.45,160.05z"/>
						</g>
					</g>
					<g>
						<g>
							<path class="st7" d="M169.74,155.6c0,0.34-0.24,0.48-0.54,0.31c-0.3-0.17-0.54-0.59-0.54-0.93c0-0.34,0.24-0.48,0.54-0.31
								C169.5,154.85,169.74,155.26,169.74,155.6z"/>
							<path class="st6" d="M169.2,154.7c0-0.01,0-0.01,0-0.02l0,0c-0.3-0.17-0.54-0.03-0.54,0.31c0,0.34,0.24,0.76,0.54,0.93
								c0.29,0.17,0.53,0.04,0.54-0.29C169.44,155.45,169.2,155.04,169.2,154.7z"/>
						</g>
						<g>
							<path class="st1" d="M171.16,151.8c-0.32-0.18-0.73-0.15-1.16,0.1c-0.5,0.29-0.94,0.82-1.21,1.41
								c-0.18,0.38-0.28,0.79-0.28,1.17c0,0.3,0.07,0.56,0.19,0.75c0,0,0,0,0,0.01c0.08,0.12,0.18,0.21,0.29,0.28
								c0.14,0.07,0.29,0.11,0.45,0.11c0.1,0,0.19-0.01,0.3-0.04c0-0.1-0.02-0.2-0.06-0.3c-0.2,0.06-0.39,0.05-0.53-0.04
								c-0.19-0.11-0.3-0.32-0.33-0.62c-0.01-0.05-0.01-0.1-0.01-0.16c0-0.32,0.09-0.68,0.24-1.02c0.24-0.54,0.65-1.04,1.1-1.3
								c0.2-0.12,0.39-0.18,0.56-0.18c0.11,0,0.21,0.03,0.3,0.07c0.22,0.13,0.34,0.4,0.34,0.78c0,0.53-0.23,1.13-0.59,1.61
								l0.26,0.15c0.38-0.53,0.63-1.19,0.63-1.76C171.65,152.35,171.47,151.98,171.16,151.8z"/>
						</g>
					</g>
				</g>
				<g>
					<polygon class="st6" points="198.2,169.05 163.22,148.85 161.21,143.77 200.2,166.28 					"/>
					<polygon class="st1" points="200.2,166.28 203.2,164.54 201.2,167.31 198.2,169.05 					"/>
					<polygon class="st35" points="161.21,143.77 164.22,142.03 203.2,164.54 200.2,166.28 					"/>
					<polygon class="st6" points="199.48,162.39 193.76,162.34 194.93,159.76 					"/>
				</g>
				<g>
					<polygon class="st6" points="193.76,162.34 190.57,160.5 190.57,154.04 192.17,153.22 193.76,155.88 					"/>
					<polygon class="st1" points="196.43,154.34 193.76,155.88 193.76,162.34 196.43,160.8 					"/>
					<polygon class="st35" points="192.17,153.22 194.84,151.69 196.43,154.34 193.76,155.88 					"/>
					<polygon class="st1" points="190.57,154.04 193.24,152.5 194.84,151.69 192.17,153.22 					"/>
				</g>
			</g>
		</g>
		<g>
			<g>
				<polygon class="st23" points="290.18,137.59 244.08,110.98 244.08,108.6 290.18,135.22 				"/>
				<polygon class="st19" points="290.18,137.59 291.22,136.99 291.22,134.62 290.18,135.22 				"/>
				<polygon class="st21" points="291.22,134.62 290.18,135.22 244.08,108.6 245.12,108 				"/>
			</g>
			<g>
				<polygon class="st23" points="290.18,160.23 244.08,133.62 244.08,131.24 290.18,157.86 				"/>
				<polygon class="st19" points="290.18,160.23 291.22,159.63 291.22,157.26 290.18,157.86 				"/>
				<polygon class="st21" points="291.22,157.26 290.18,157.86 244.08,131.24 245.12,130.64 				"/>
			</g>
			<g>
				<g>
					<g>
						<polygon class="st21" points="250.19,140.45 246.5,138.32 246.5,105.15 248.34,103.97 250.19,107.28 						"/>
						<polygon class="st23" points="250.19,140.45 251.27,139.83 251.27,106.66 250.19,107.28 						"/>
						<polygon class="st4" points="250.19,107.28 251.27,106.66 249.42,103.35 248.34,103.97 						"/>
					</g>
					<g>
						<path class="st19" d="M249.14,113.63c0,0.5-0.36,0.71-0.8,0.45c-0.44-0.25-0.8-0.87-0.8-1.37s0.36-0.71,0.8-0.45
							C248.78,112.51,249.14,113.13,249.14,113.63z"/>
						<path class="st19" d="M249.14,135.58c0,0.5-0.36,0.71-0.8,0.45c-0.44-0.25-0.8-0.87-0.8-1.37s0.36-0.71,0.8-0.45
							C248.78,134.46,249.14,135.08,249.14,135.58z"/>
					</g>
				</g>
				<g>
					<g>
						<polygon class="st21" points="256.14,143.89 252.45,141.76 252.45,108.59 254.29,107.41 256.14,110.72 						"/>
						<polygon class="st23" points="256.14,143.89 257.22,143.27 257.22,110.1 256.14,110.72 						"/>
						<polygon class="st4" points="256.14,110.72 257.22,110.1 255.37,106.79 254.29,107.41 						"/>
					</g>
					<g>
						<path class="st19" d="M255.09,117.07c0,0.5-0.36,0.71-0.8,0.45c-0.44-0.25-0.8-0.87-0.8-1.37s0.36-0.71,0.8-0.45
							C254.73,115.95,255.09,116.56,255.09,117.07z"/>
						<path class="st19" d="M255.09,139.02c0,0.5-0.36,0.71-0.8,0.45c-0.44-0.25-0.8-0.87-0.8-1.37s0.36-0.71,0.8-0.45
							C254.73,137.9,255.09,138.52,255.09,139.02z"/>
					</g>
				</g>
				<g>
					<g>
						<polygon class="st21" points="262.09,147.33 258.4,145.2 258.4,112.03 260.24,110.85 262.09,114.16 						"/>
						<polygon class="st23" points="262.09,147.33 263.16,146.71 263.16,113.54 262.09,114.16 						"/>
						<polygon class="st4" points="262.09,114.16 263.16,113.54 261.32,110.23 260.24,110.85 						"/>
					</g>
					<g>
						<path class="st19" d="M261.04,120.51c0,0.5-0.36,0.71-0.8,0.45c-0.44-0.25-0.8-0.87-0.8-1.37s0.36-0.71,0.8-0.45
							C260.68,119.39,261.04,120,261.04,120.51z"/>
						<path class="st19" d="M261.04,142.46c0,0.5-0.36,0.71-0.8,0.45c-0.44-0.25-0.8-0.87-0.8-1.37c0-0.5,0.36-0.71,0.8-0.45
							C260.68,141.34,261.04,141.95,261.04,142.46z"/>
					</g>
				</g>
				<g>
					<g>
						<polygon class="st21" points="268.03,150.77 264.35,148.64 264.35,115.47 266.19,114.29 268.03,117.6 						"/>
						<polygon class="st23" points="268.03,150.77 269.11,150.15 269.11,116.98 268.03,117.6 						"/>
						<polygon class="st4" points="268.03,117.6 269.11,116.98 267.27,113.67 266.19,114.29 						"/>
					</g>
					<g>
						<path class="st19" d="M266.99,123.95c0,0.5-0.36,0.71-0.8,0.45c-0.44-0.25-0.8-0.87-0.8-1.37c0-0.5,0.36-0.71,0.8-0.45
							C266.63,122.83,266.99,123.44,266.99,123.95z"/>
						<path class="st19" d="M266.99,145.9c0,0.5-0.36,0.71-0.8,0.45c-0.44-0.25-0.8-0.87-0.8-1.37c0-0.5,0.36-0.71,0.8-0.45
							C266.63,144.78,266.99,145.39,266.99,145.9z"/>
					</g>
				</g>
				<g>
					<g>
						<polygon class="st21" points="273.98,154.2 270.29,152.07 270.29,118.9 272.14,117.73 273.98,121.03 						"/>
						<polygon class="st23" points="273.98,154.2 275.06,153.59 275.06,120.41 273.98,121.03 						"/>
						<polygon class="st4" points="273.98,121.03 275.06,120.41 273.22,117.11 272.14,117.73 						"/>
					</g>
					<g>
						<path class="st19" d="M272.93,127.38c0,0.5-0.36,0.71-0.8,0.45c-0.44-0.25-0.8-0.87-0.8-1.37c0-0.5,0.36-0.71,0.8-0.45
							C272.58,126.26,272.93,126.88,272.93,127.38z"/>
						<path class="st19" d="M272.93,149.34c0,0.5-0.36,0.71-0.8,0.45c-0.44-0.25-0.8-0.87-0.8-1.37c0-0.5,0.36-0.71,0.8-0.45
							C272.58,148.22,272.93,148.83,272.93,149.34z"/>
					</g>
				</g>
				<g>
					<g>
						<polygon class="st21" points="279.93,157.64 276.24,155.51 276.24,122.34 278.09,121.16 279.93,124.47 						"/>
						<polygon class="st23" points="279.93,157.64 281.01,157.02 281.01,123.85 279.93,124.47 						"/>
						<polygon class="st4" points="279.93,124.47 281.01,123.85 279.17,120.54 278.09,121.16 						"/>
					</g>
					<g>
						<path class="st19" d="M278.88,130.82c0,0.5-0.36,0.71-0.8,0.45c-0.44-0.25-0.8-0.87-0.8-1.37c0-0.5,0.36-0.71,0.8-0.45
							C278.53,129.7,278.88,130.32,278.88,130.82z"/>
						<path class="st19" d="M278.88,152.77c0,0.51-0.36,0.71-0.8,0.45c-0.44-0.25-0.8-0.87-0.8-1.37c0-0.5,0.36-0.71,0.8-0.45
							C278.53,151.65,278.88,152.27,278.88,152.77z"/>
					</g>
				</g>
				<g>
					<g>
						<polygon class="st21" points="285.88,161.08 282.19,158.95 282.19,125.78 284.03,124.6 285.88,127.91 						"/>
						<polygon class="st23" points="285.88,161.08 286.96,160.46 286.96,127.29 285.88,127.91 						"/>
						<polygon class="st4" points="285.88,127.91 286.96,127.29 285.11,123.98 284.03,124.6 						"/>
					</g>
					<g>
						<path class="st19" d="M284.83,134.26c0,0.51-0.36,0.71-0.8,0.45c-0.44-0.25-0.8-0.87-0.8-1.37c0-0.5,0.36-0.71,0.8-0.45
							C284.47,133.14,284.83,133.75,284.83,134.26z"/>
						<path class="st19" d="M284.83,156.21c0,0.5-0.36,0.71-0.8,0.45c-0.44-0.25-0.8-0.87-0.8-1.37s0.36-0.71,0.8-0.45
							C284.47,155.09,284.83,155.71,284.83,156.21z"/>
					</g>
				</g>
			</g>
		</g>
	</g>
</g>
</svg>
